HIERARCHY
ROOT mixamorig8:Hips
{
	OFFSET 0.000000 95.601868 0.000000
	CHANNELS 6 Xposition Yposition Zposition Xrotation Yrotation Zrotation
	JOINT mixamorig8:Spine
	{
		OFFSET 0.000000 10.422600 -1.061300
		CHANNELS 3 Xrotation Yrotation Zrotation
		JOINT mixamorig8:Spine1
		{
			OFFSET 0.000000 12.159721 -1.238206
			CHANNELS 3 Xrotation Yrotation Zrotation
			JOINT mixamorig8:Spine2
			{
				OFFSET 0.000000 13.896835 -1.415094
				CHANNELS 3 Xrotation Yrotation Zrotation
				JOINT mixamorig8:Neck
				{
					OFFSET 0.000000 15.633957 -1.591981
					CHANNELS 3 Xrotation Yrotation Zrotation
					JOINT mixamorig8:Head
					{
						OFFSET 0.000000 6.974503 2.478000
						CHANNELS 3 Xrotation Yrotation Zrotation
						JOINT mixamorig8:HeadTop_End
						{
							OFFSET 0.000000 20.494995 7.281700
							CHANNELS 3 Xrotation Yrotation Zrotation
							End Site
							{
								OFFSET 0.000000 21.750137 0.000000
							}
						}
					}
				}
				JOINT mixamorig8:LeftShoulder
				{
					OFFSET 7.303800 13.851456 -1.593213
					CHANNELS 3 Xrotation Yrotation Zrotation
					JOINT mixamorig8:LeftArm
					{
						OFFSET 14.566059 -3.558365 -0.002408
						CHANNELS 3 Xrotation Yrotation Zrotation
						JOINT mixamorig8:LeftForeArm
						{
							OFFSET 25.743414 0.000000 -0.000001
							CHANNELS 3 Xrotation Yrotation Zrotation
							JOINT mixamorig8:LeftHand
							{
								OFFSET 22.281700 0.000000 -0.000001
								CHANNELS 3 Xrotation Yrotation Zrotation
								JOINT mixamorig8:LeftHandThumb1
								{
									OFFSET 3.201164 -1.365997 2.690049
									CHANNELS 3 Xrotation Yrotation Zrotation
									JOINT mixamorig8:LeftHandThumb2
									{
										OFFSET 2.725899 -1.573792 1.573797
										CHANNELS 3 Xrotation Yrotation Zrotation
										JOINT mixamorig8:LeftHandThumb3
										{
											OFFSET 2.597427 -1.499619 1.499624
											CHANNELS 3 Xrotation Yrotation Zrotation
											JOINT mixamorig8:LeftHandThumb4
											{
												OFFSET 2.047806 -1.182297 1.182299
												CHANNELS 3 Xrotation Yrotation Zrotation
												End Site
												{
													OFFSET 1.797989 -1.145737 1.563238
												}
											}
										}
									}
								}
								JOINT mixamorig8:LeftHandIndex1
								{
									OFFSET 9.611206 -0.311234 2.501954
									CHANNELS 3 Xrotation Yrotation Zrotation
									JOINT mixamorig8:LeftHandIndex2
									{
										OFFSET 3.334274 0.000000 -0.000000
										CHANNELS 3 Xrotation Yrotation Zrotation
										JOINT mixamorig8:LeftHandIndex3
										{
											OFFSET 3.182304 0.000000 -0.000000
											CHANNELS 3 Xrotation Yrotation Zrotation
											JOINT mixamorig8:LeftHandIndex4
											{
												OFFSET 2.731956 0.000000 -0.000000
												CHANNELS 3 Xrotation Yrotation Zrotation
												End Site
												{
													OFFSET 2.731903 -0.000320 -0.017797
												}
											}
										}
									}
								}
								JOINT mixamorig8:LeftHandMiddle1
								{
									OFFSET 9.925911 0.000000 -0.000000
									CHANNELS 3 Xrotation Yrotation Zrotation
									JOINT mixamorig8:LeftHandMiddle2
									{
										OFFSET 3.424828 0.000000 0.000000
										CHANNELS 3 Xrotation Yrotation Zrotation
										JOINT mixamorig8:LeftHandMiddle3
										{
											OFFSET 3.369331 0.000000 0.000000
											CHANNELS 3 Xrotation Yrotation Zrotation
											JOINT mixamorig8:LeftHandMiddle4
											{
												OFFSET 2.942902 0.000000 0.000000
												CHANNELS 3 Xrotation Yrotation Zrotation
												End Site
												{
													OFFSET 2.942902 0.000015 0.000900
												}
											}
										}
									}
								}
								JOINT mixamorig8:LeftHandRing1
								{
									OFFSET 10.065971 -0.082916 -2.266527
									CHANNELS 3 Xrotation Yrotation Zrotation
									JOINT mixamorig8:LeftHandRing2
									{
										OFFSET 2.791298 0.000000 0.000000
										CHANNELS 3 Xrotation Yrotation Zrotation
										JOINT mixamorig8:LeftHandRing3
										{
											OFFSET 2.658607 0.000000 0.000000
											CHANNELS 3 Xrotation Yrotation Zrotation
											JOINT mixamorig8:LeftHandRing4
											{
												OFFSET 2.236107 0.000000 0.000000
												CHANNELS 3 Xrotation Yrotation Zrotation
												End Site
												{
													OFFSET 2.236107 0.000137 0.005798
												}
											}
										}
									}
								}
								JOINT mixamorig8:LeftHandPinky1
								{
									OFFSET 8.583519 -0.288223 -4.238468
									CHANNELS 3 Xrotation Yrotation Zrotation
									JOINT mixamorig8:LeftHandPinky2
									{
										OFFSET 2.687729 0.000000 0.000000
										CHANNELS 3 Xrotation Yrotation Zrotation
										JOINT mixamorig8:LeftHandPinky3
										{
											OFFSET 2.275513 0.000000 0.000000
											CHANNELS 3 Xrotation Yrotation Zrotation
											JOINT mixamorig8:LeftHandPinky4
											{
												OFFSET 1.948105 0.000000 0.000000
												CHANNELS 3 Xrotation Yrotation Zrotation
												End Site
												{
													OFFSET 1.948097 -0.000107 -0.005098
												}
											}
										}
									}
								}
							}
						}
					}
				}
				JOINT mixamorig8:RightShoulder
				{
					OFFSET -7.303800 13.851410 -1.590795
					CHANNELS 3 Xrotation Yrotation Zrotation
					JOINT mixamorig8:RightArm
					{
						OFFSET -14.566072 -3.558319 0.002404
						CHANNELS 3 Xrotation Yrotation Zrotation
						JOINT mixamorig8:RightForeArm
						{
							OFFSET -25.750904 0.000000 0.000001
							CHANNELS 3 Xrotation Yrotation Zrotation
							JOINT mixamorig8:RightHand
							{
								OFFSET -22.284901 0.000000 0.000000
								CHANNELS 3 Xrotation Yrotation Zrotation
								JOINT mixamorig8:RightHandThumb1
								{
									OFFSET -3.163162 -1.340439 2.713043
									CHANNELS 3 Xrotation Yrotation Zrotation
									JOINT mixamorig8:RightHandThumb2
									{
										OFFSET -2.712654 -1.566147 1.566152
										CHANNELS 3 Xrotation Yrotation Zrotation
										JOINT mixamorig8:RightHandThumb3
										{
											OFFSET -2.648239 -1.528961 1.528961
											CHANNELS 3 Xrotation Yrotation Zrotation
											JOINT mixamorig8:RightHandThumb4
											{
												OFFSET -2.194908 -1.267227 1.267229
												CHANNELS 3 Xrotation Yrotation Zrotation
												End Site
												{
													OFFSET -2.031616 -1.249817 1.529646
												}
											}
										}
									}
								}
								JOINT mixamorig8:RightHandIndex1
								{
									OFFSET -10.085068 -0.262451 2.622919
									CHANNELS 3 Xrotation Yrotation Zrotation
									JOINT mixamorig8:RightHandIndex2
									{
										OFFSET -3.173141 0.000000 0.000000
										CHANNELS 3 Xrotation Yrotation Zrotation
										JOINT mixamorig8:RightHandIndex3
										{
											OFFSET -3.064804 0.000000 0.000000
											CHANNELS 3 Xrotation Yrotation Zrotation
											JOINT mixamorig8:RightHandIndex4
											{
												OFFSET -2.521721 0.000000 0.000000
												CHANNELS 3 Xrotation Yrotation Zrotation
												End Site
												{
													OFFSET -2.521690 -0.000290 -0.010096
												}
											}
										}
									}
								}
								JOINT mixamorig8:RightHandMiddle1
								{
									OFFSET -9.804817 0.000000 0.000000
									CHANNELS 3 Xrotation Yrotation Zrotation
									JOINT mixamorig8:RightHandMiddle2
									{
										OFFSET -3.491928 0.000000 0.000000
										CHANNELS 3 Xrotation Yrotation Zrotation
										JOINT mixamorig8:RightHandMiddle3
										{
											OFFSET -3.416733 0.000000 0.000000
											CHANNELS 3 Xrotation Yrotation Zrotation
											JOINT mixamorig8:RightHandMiddle4
											{
												OFFSET -2.844498 0.000000 0.000000
												CHANNELS 3 Xrotation Yrotation Zrotation
												End Site
												{
													OFFSET -2.844498 0.000031 0.000999
												}
											}
										}
									}
								}
								JOINT mixamorig8:RightHandRing1
								{
									OFFSET -10.030296 -0.054901 -2.204751
									CHANNELS 3 Xrotation Yrotation Zrotation
									JOINT mixamorig8:RightHandRing2
									{
										OFFSET -2.807304 0.000000 0.000000
										CHANNELS 3 Xrotation Yrotation Zrotation
										JOINT mixamorig8:RightHandRing3
										{
											OFFSET -2.701004 0.000000 0.000000
											CHANNELS 3 Xrotation Yrotation Zrotation
											JOINT mixamorig8:RightHandRing4
											{
												OFFSET -2.164108 0.000000 0.000000
												CHANNELS 3 Xrotation Yrotation Zrotation
												End Site
												{
													OFFSET -2.164101 0.000214 0.004895
												}
											}
										}
									}
								}
								JOINT mixamorig8:RightHandPinky1
								{
									OFFSET -8.796547 -0.246353 -4.394717
									CHANNELS 3 Xrotation Yrotation Zrotation
									JOINT mixamorig8:RightHandPinky2
									{
										OFFSET -2.633102 0.000000 0.000000
										CHANNELS 3 Xrotation Yrotation Zrotation
										JOINT mixamorig8:RightHandPinky3
										{
											OFFSET -2.117722 0.000000 0.000000
											CHANNELS 3 Xrotation Yrotation Zrotation
											JOINT mixamorig8:RightHandPinky4
											{
												OFFSET -1.749016 0.000000 0.000000
												CHANNELS 3 Xrotation Yrotation Zrotation
												End Site
												{
													OFFSET -1.748993 0.000259 0.006595
												}
											}
										}
									}
								}
							}
						}
					}
				}
			}
		}
	}
	JOINT mixamorig8:LeftUpLeg
	{
		OFFSET 9.217100 -5.789398 -0.439100
		CHANNELS 3 Xrotation Yrotation Zrotation
		JOINT mixamorig8:LeftLeg
		{
			OFFSET 0.311980 -43.054802 -2.672531
			CHANNELS 3 Xrotation Yrotation Zrotation
			JOINT mixamorig8:LeftFoot
			{
				OFFSET -0.311977 -36.765347 -2.596062
				CHANNELS 3 Xrotation Yrotation Zrotation
				JOINT mixamorig8:LeftToeBase
				{
					OFFSET 0.731746 -8.598896 13.984765
					CHANNELS 3 Xrotation Yrotation Zrotation
					JOINT mixamorig8:LeftToe_End
					{
						OFFSET 0.930837 0.277384 7.189084
						CHANNELS 3 Xrotation Yrotation Zrotation
						End Site
						{
							OFFSET 0.930837 0.277384 7.189083
						}
					}
				}
			}
		}
	}
	JOINT mixamorig8:RightUpLeg
	{
		OFFSET -9.217100 -5.789398 -0.725500
		CHANNELS 3 Xrotation Yrotation Zrotation
		JOINT mixamorig8:RightLeg
		{
			OFFSET -0.311955 -43.054821 -2.369339
			CHANNELS 3 Xrotation Yrotation Zrotation
			JOINT mixamorig8:RightFoot
			{
				OFFSET 0.311950 -36.765358 -2.378026
				CHANNELS 3 Xrotation Yrotation Zrotation
				JOINT mixamorig8:RightToeBase
				{
					OFFSET -0.731773 -8.598959 13.974269
					CHANNELS 3 Xrotation Yrotation Zrotation
					JOINT mixamorig8:RightToe_End
					{
						OFFSET -0.930839 0.277358 7.314295
						CHANNELS 3 Xrotation Yrotation Zrotation
						End Site
						{
							OFFSET -0.930839 0.277358 7.314295
						}
					}
				}
			}
		}
	}
}
MOTION
Frames: 6
Frame Time: 0.033333
13.786564 92.401634 61.236912 170.678955 15.461909 -173.687640 1.609030 -0.147700 -1.091217 3.215106 -0.330939 -2.193940 3.215107 -0.330947 -2.193939 -1.031054 0.635017 0.268994 -1.031057 0.635008 0.268996 0.000001 -0.000001 0.000000 0.591689 -3.289125 -10.946878 12.015520 -3.604328 -74.453768 16.066828 -19.722072 5.783131 -6.004637 -12.542528 -0.093132 25.111247 -2.687285 20.499112 9.304984 24.441181 -0.847876 -2.521165 -8.459285 -4.290571 0.000002 0.000001 -0.000000 0.599984 6.911492 -23.883891 2.733498 1.542658 -36.765973 4.400529 -2.444467 -4.361226 -0.000000 -0.000002 -0.000000 0.976118 7.422063 -32.221721 5.809248 1.256771 -45.781136 5.743666 -0.254569 -5.489717 -0.000000 -0.000003 0.000000 -1.227782 6.340739 -44.477864 7.491181 2.055231 -50.574460 5.786974 -0.288669 -9.889661 0.000000 -0.000005 -0.000000 -5.698686 1.174825 -43.952752 10.001152 3.459279 -50.341957 10.463901 6.463358 -29.880418 0.000000 0.000001 -0.000001 0.501148 4.481159 19.444683 2.630761 -14.009866 60.661758 -18.777688 15.328464 5.889333 -3.472242 5.910111 -29.711466 3.824841 -12.345959 -1.042562 4.523881 -9.504802 0.488643 3.860046 -12.119550 -3.867367 0.000002 0.000001 0.000005 3.545369 -9.668653 69.326714 8.886354 -3.241714 112.372560 5.374722 0.824719 34.768156 -0.000001 0.000000 -0.000002 5.660045 -9.815676 93.151705 8.809063 -2.682467 83.366263 6.985497 2.802873 35.996460 0.000003 -0.000000 -0.000001 4.831705 -12.380565 97.852514 10.912790 -3.225617 91.663488 8.357668 3.303321 55.647112 -0.000003 0.000001 -0.000002 0.269953 -10.740398 93.149765 10.737857 -3.968335 60.274316 11.067063 -1.040092 24.703611 0.000004 0.000001 -0.000001 -37.691282 4.241104 -10.898304 52.991285 17.240256 1.028490 -10.932730 0.601261 10.768989 7.622525 -0.198053 -2.011554 -0.000001 0.000001 -0.000000 -26.648210 -44.903767 -8.159992 28.819474 0.594979 -20.491256 -18.297979 -2.466843 12.500119 -10.785022 -1.487871 -0.696229 -0.000001 0.000002 0.000000 
14.396039 92.364563 60.206455 170.332842 13.000051 -173.098604 1.558084 -0.101967 -1.333428 3.112822 -0.234805 -2.614888 3.112825 -0.234807 -2.614887 -1.043535 0.633086 0.162732 -1.043519 0.633086 0.162732 0.000000 -0.000001 -0.000000 0.601033 -2.701755 -11.480364 12.191447 -3.122793 -74.150658 18.975411 -17.783185 6.271907 -6.129510 -13.586970 -0.332643 25.111247 -2.687290 20.499109 9.304984 24.441185 -0.847876 -2.521160 -8.459281 -4.290566 -0.000000 -0.000002 -0.000002 0.599986 6.911492 -23.883887 2.733496 1.542655 -36.765969 4.400532 -2.444472 -4.361231 -0.000002 0.000003 -0.000002 0.976117 7.422063 -32.221721 5.809245 1.256769 -45.781129 5.743665 -0.254566 -5.489716 0.000001 -0.000002 0.000000 -1.227795 6.340739 -44.477861 7.491180 2.055227 -50.574464 5.786972 -0.288669 -9.889663 0.000001 0.000003 -0.000001 -5.698690 1.174825 -43.952752 10.001148 3.459274 -50.341954 10.463900 6.463366 -29.880418 -0.000005 -0.000000 -0.000004 0.414756 5.616603 18.874336 2.637067 -14.132017 60.669114 -17.519644 15.655053 5.999650 -3.983014 5.549204 -28.790210 3.824838 -12.345955 -1.042562 4.523884 -9.504804 0.488641 3.860046 -12.119557 -3.867367 0.000004 -0.000000 0.000001 3.545371 -9.668650 69.326721 8.886360 -3.241715 112.372560 5.374721 0.824718 34.768152 -0.000003 -0.000000 0.000000 5.660043 -9.815681 93.151705 8.809066 -2.682469 83.366270 6.985497 2.802871 35.996456 -0.000000 -0.000001 -0.000001 4.831704 -12.380567 97.852514 10.912789 -3.225619 91.663481 8.357659 3.303315 55.647112 -0.000002 0.000001 -0.000000 0.269953 -10.740400 93.149765 10.737859 -3.968341 60.274323 11.067068 -1.040088 24.703614 0.000000 -0.000000 0.000003 -40.348625 4.071372 -11.392021 49.777480 19.088371 1.068566 -7.592641 1.480513 9.064531 7.588098 0.167980 -1.631116 -0.000003 0.000001 -0.000000 -28.121549 -48.138593 -11.182967 29.533663 3.181783 -20.038619 -19.823825 -2.367305 12.075243 -12.097442 -2.246331 0.494266 -0.000001 -0.000001 -0.000001 
15.053384 92.242531 58.789387 169.264573 10.853763 -172.414452 1.286545 -0.137888 -1.547322 2.567997 -0.296182 -2.998113 2.567999 -0.296182 -2.998113 -1.138104 0.643265 0.083336 -1.138109 0.643261 0.083336 -0.000001 0.000000 -0.000000 0.613894 -2.023981 -11.719865 12.141360 -2.603899 -73.974521 22.107227 -15.020194 6.341812 -6.404968 -14.804816 -1.474293 25.111247 -2.687289 20.499110 9.304985 24.441188 -0.847869 -2.521164 -8.459283 -4.290570 -0.000002 0.000005 -0.000002 0.599982 6.911493 -23.883889 2.733496 1.542657 -36.765973 4.400531 -2.444471 -4.361231 -0.000000 0.000003 -0.000001 0.976116 7.422062 -32.221718 5.809245 1.256772 -45.781132 5.743667 -0.254568 -5.489716 0.000000 -0.000000 0.000000 -1.227787 6.340739 -44.477864 7.491185 2.055229 -50.574464 5.786974 -0.288666 -9.889661 0.000000 0.000004 0.000001 -5.698690 1.174825 -43.952756 10.001155 3.459274 -50.341954 10.463902 6.463367 -29.880421 0.000000 -0.000003 -0.000003 0.330604 6.849498 18.328857 3.037623 -14.445177 60.952376 -16.013237 16.674344 5.683454 -4.408303 4.575263 -27.931423 3.824837 -12.345960 -1.042557 4.523880 -9.504802 0.488644 3.860048 -12.119555 -3.867369 -0.000003 0.000003 0.000003 3.545369 -9.668656 69.326721 8.886355 -3.241710 112.372554 5.374719 0.824720 34.768156 0.000000 0.000000 0.000000 5.660044 -9.815679 93.151705 8.809064 -2.682467 83.366270 6.985496 2.802872 35.996460 -0.000004 -0.000001 0.000001 4.831700 -12.380571 97.852514 10.912791 -3.225615 91.663481 8.357659 3.303316 55.647115 0.000001 0.000001 0.000001 0.269953 -10.740403 93.149772 10.737860 -3.968337 60.274323 11.067067 -1.040088 24.703613 -0.000000 0.000005 0.000004 -43.423303 3.432603 -11.761122 45.831730 19.575843 1.100753 -3.574516 1.778160 6.686249 7.708150 0.276878 -0.408009 0.000001 -0.000000 0.000001 -30.385049 -50.539688 -14.061573 30.567053 5.274310 -19.875205 -20.825822 -2.198837 11.753483 -13.678810 -3.216891 2.003225 -0.000002 0.000003 0.000000 
15.758518 92.055229 56.990807 167.947767 8.892824 -171.819187 0.913183 -0.231569 -1.733957 1.818038 -0.466111 -3.329387 1.818033 -0.466115 -3.329385 -1.297280 0.634602 -0.000850 -1.297290 0.634598 -0.000849 -0.000001 0.000000 0.000000 0.626517 -1.448911 -11.885553 12.097432 -2.272808 -73.602159 24.571208 -12.271291 5.932012 -6.761064 -15.931201 -3.022568 25.111245 -2.687289 20.499107 9.304980 24.441185 -0.847874 -2.521163 -8.459287 -4.290569 -0.000001 -0.000003 0.000002 0.599984 6.911493 -23.883889 2.733499 1.542661 -36.765973 4.400532 -2.444457 -4.361229 -0.000001 -0.000000 -0.000001 0.976120 7.422063 -32.221721 5.809244 1.256769 -45.781132 5.743666 -0.254568 -5.489718 0.000000 0.000001 -0.000000 -1.227791 6.340740 -44.477864 7.491177 2.055227 -50.574460 5.786973 -0.288673 -9.889659 -0.000001 -0.000000 -0.000001 -5.698697 1.174825 -43.952745 10.001153 3.459277 -50.341957 10.463904 6.463364 -29.880421 -0.000000 0.000001 0.000001 0.260386 8.038774 17.803265 3.629117 -15.057413 61.628831 -14.538990 18.149488 5.048320 -4.546872 3.057886 -27.674716 3.824837 -12.345960 -1.042553 4.523877 -9.504803 0.488637 3.860052 -12.119554 -3.867371 0.000001 0.000001 0.000001 3.545369 -9.668651 69.326721 8.886360 -3.241713 112.372560 5.374719 0.824719 34.768156 -0.000001 0.000000 -0.000001 5.660043 -9.815677 93.151711 8.809066 -2.682469 83.366270 6.985499 2.802872 35.996460 0.000003 -0.000000 -0.000000 4.831707 -12.380562 97.852514 10.912786 -3.225615 91.663488 8.357659 3.303313 55.647112 0.000000 0.000000 0.000000 0.269955 -10.740394 93.149772 10.737862 -3.968336 60.274316 11.067068 -1.040088 24.703609 0.000004 0.000000 0.000000 -46.050112 2.640477 -12.024344 40.889798 19.288492 1.134919 0.519732 1.484247 4.093612 6.993619 0.085359 0.222437 0.000002 0.000001 -0.000000 -32.400741 -52.143932 -16.496546 31.496034 6.694572 -19.671017 -21.579156 -2.038442 11.547050 -14.993891 -4.296969 3.551294 0.000000 0.000001 0.000000 
16.451162 91.798775 54.883183 167.276169 7.261846 -171.512061 0.672282 -0.304258 -1.884115 1.333438 -0.595931 -3.589608 1.333437 -0.595933 -3.589610 -1.400304 0.607965 -0.192299 -1.400322 0.607969 -0.192296 0.000000 -0.000000 -0.000000 0.639045 -1.215923 -12.253067 12.131116 -2.134191 -72.791655 26.156865 -9.995208 5.287508 -7.115843 -17.037820 -4.349213 25.111245 -2.687289 20.499107 9.304984 24.441183 -0.847874 -2.521168 -8.459283 -4.290570 -0.000000 0.000001 -0.000000 0.599980 6.911492 -23.883891 2.733497 1.542658 -36.765973 4.400531 -2.444466 -4.361227 -0.000000 0.000002 0.000000 0.976118 7.422063 -32.221725 5.809243 1.256770 -45.781132 5.743665 -0.254566 -5.489718 -0.000000 -0.000005 0.000000 -1.227793 6.340740 -44.477861 7.491180 2.055233 -50.574460 5.786975 -0.288669 -9.889662 -0.000000 0.000001 0.000004 -5.698692 1.174825 -43.952756 10.001147 3.459272 -50.341954 10.463904 6.463365 -29.880418 0.000003 -0.000001 -0.000000 0.227686 8.875914 17.243760 4.269401 -15.733774 62.568474 -13.134701 20.128260 4.449038 -4.525062 0.969340 -28.205572 3.824842 -12.345959 -1.042565 4.523878 -9.504802 0.488645 3.860046 -12.119555 -3.867367 0.000000 0.000001 0.000003 3.545368 -9.668651 69.326714 8.886356 -3.241710 112.372554 5.374716 0.824718 34.768156 0.000001 0.000000 0.000000 5.660043 -9.815676 93.151705 8.809067 -2.682471 83.366263 6.985501 2.802874 35.996456 0.000001 -0.000000 0.000000 4.831704 -12.380567 97.852514 10.912791 -3.225617 91.663488 8.357663 3.303316 55.647112 -0.000002 -0.000000 -0.000001 0.269955 -10.740396 93.149765 10.737857 -3.968341 60.274323 11.067067 -1.040091 24.703613 -0.000001 0.000001 -0.000000 -47.182021 1.938454 -12.128629 35.125911 18.265295 1.181805 4.534702 0.972931 2.332231 5.616559 -0.092469 0.283258 -0.000000 0.000002 -0.000000 -32.721247 -52.800050 -18.103497 32.122038 7.251649 -19.066155 -22.232346 -2.014810 11.735440 -15.872552 -5.184089 4.601496 -0.000000 0.000000 -0.000001 
17.025589 91.457909 52.511551 167.744310 6.260271 -171.498373 0.685673 -0.278640 -1.997379 1.360089 -0.537874 -3.768838 1.360087 -0.537873 -3.768839 -1.352676 0.588378 -0.533311 -1.352688 0.588376 -0.533310 0.000001 -0.000000 -0.000000 0.651248 -1.278337 -12.911818 12.180075 -1.919411 -71.601433 27.241909 -8.288310 4.683036 -7.410748 -18.354510 -4.994171 25.111249 -2.687288 20.499112 9.304982 24.441183 -0.847876 -2.521162 -8.459284 -4.290572 0.000001 -0.000002 -0.000002 0.599980 6.911492 -23.883889 2.733497 1.542659 -36.765973 4.400531 -2.444467 -4.361229 0.000001 0.000002 -0.000001 0.976119 7.422063 -32.221725 5.809243 1.256772 -45.781132 5.743665 -0.254567 -5.489717 -0.000000 -0.000001 -0.000001 -1.227790 6.340740 -44.477864 7.491181 2.055224 -50.574457 5.786973 -0.288673 -9.889662 -0.000001 0.000000 0.000002 -5.698691 1.174826 -43.952749 10.001150 3.459279 -50.341950 10.463902 6.463363 -29.880421 -0.000000 -0.000003 -0.000005 0.239337 9.170098 16.650912 4.757459 -16.136011 63.451850 -11.469281 22.439179 3.867629 -4.604557 -1.394570 -29.030206 3.824838 -12.345959 -1.042566 4.523879 -9.504802 0.488644 3.860051 -12.119558 -3.867370 0.000000 -0.000004 -0.000000 3.545368 -9.668653 69.326721 8.886356 -3.241712 112.372554 5.374721 0.824719 34.768159 -0.000001 0.000000 -0.000000 5.660041 -9.815676 93.151711 8.809070 -2.682470 83.366263 6.985501 2.802875 35.996460 0.000002 0.000000 0.000001 4.831702 -12.380567 97.852514 10.912790 -3.225615 91.663488 8.357660 3.303314 55.647112 0.000000 0.000001 0.000002 0.269952 -10.740395 93.149772 10.737857 -3.968336 60.274323 11.067068 -1.040086 24.703613 -0.000003 0.000000 -0.000002 -46.388681 1.512925 -12.038439 29.103911 16.329249 1.120375 8.500478 0.918225 2.383201 3.646314 -0.109905 -0.196556 -0.000001 0.000001 0.000000 -31.312818 -52.921344 -19.140926 33.051740 7.269652 -18.330276 -23.319903 -2.046803 11.521456 -16.405488 -5.925989 5.763028 0.000000 -0.000001 0.000000 
